<svg width="20" height="20" viewBox="0 0 20 20" fill="none" xmlns="http://www.w3.org/2000/svg">
<path d="M17.3873 1.3335H2.61303C2.27368 1.3335 1.94822 1.4683 1.70826 1.70826C1.4683 1.94822 1.3335 2.27368 1.3335 2.61303V17.3873C1.3335 17.7266 1.4683 18.0521 1.70826 18.2921C1.94822 18.532 2.27368 18.6668 2.61303 18.6668H17.3873C17.7266 18.6668 18.0521 18.532 18.2921 18.2921C18.532 18.0521 18.6668 17.7266 18.6668 17.3873V2.61303C18.6668 2.27368 18.532 1.94822 18.2921 1.70826C18.0521 1.4683 17.7266 1.3335 17.3873 1.3335ZM6.49979 16.0993H3.89377V7.82146H6.49979V16.0993ZM5.19498 6.67433C4.89937 6.67266 4.61088 6.58347 4.36592 6.418C4.12095 6.25254 3.93049 6.01821 3.81857 5.7446C3.70666 5.471 3.6783 5.17037 3.73707 4.88066C3.79585 4.59095 3.93913 4.32514 4.14883 4.11678C4.35853 3.90843 4.62525 3.76686 4.91533 3.70994C5.20541 3.65302 5.50586 3.68331 5.77874 3.79699C6.05162 3.91066 6.28472 4.10262 6.44861 4.34864C6.6125 4.59466 6.69984 4.88372 6.69961 5.17933C6.7024 5.37724 6.66531 5.57369 6.59056 5.75697C6.51581 5.94024 6.40493 6.10659 6.26452 6.2461C6.12411 6.38561 5.95705 6.49542 5.7733 6.56899C5.58955 6.64257 5.39287 6.67839 5.19498 6.67433ZM16.1053 16.1066H13.5005V11.5842C13.5005 10.2505 12.9336 9.83887 12.2017 9.83887C11.429 9.83887 10.6706 10.4215 10.6706 11.6179V16.1066H8.06461V7.82748H10.5707V8.97461H10.6044C10.856 8.46544 11.7371 7.59516 13.0816 7.59516C14.5357 7.59516 16.1066 8.45822 16.1066 10.986L16.1053 16.1066Z" fill="white"/>
</svg>
