<svg width="24" height="15" viewBox="0 0 24 15" fill="none" xmlns="http://www.w3.org/2000/svg">
<path d="M13.5374 7.22809C13.5374 10.9988 10.5069 14.0556 6.76883 14.0556C3.03073 14.0556 0 10.9981 0 7.22809C0 3.45806 3.0305 0.400391 6.76883 0.400391C10.5072 0.400391 13.5374 3.45737 13.5374 7.22809Z" fill="white"/>
<path d="M20.9627 7.22853C20.9627 10.7778 19.4474 13.6563 17.5783 13.6563C15.7091 13.6563 14.1938 10.7778 14.1938 7.22853C14.1938 3.67922 15.7089 0.800781 17.578 0.800781C19.4472 0.800781 20.9625 3.67829 20.9625 7.22853" fill="white"/>
<path d="M24 7.22798C24 10.4073 23.4672 12.9862 22.8097 12.9862C22.1522 12.9862 21.6196 10.408 21.6196 7.22798C21.6196 4.04797 22.1525 1.46973 22.8097 1.46973C23.467 1.46973 24 4.04774 24 7.22798Z" fill="white"/>
</svg>
