<svg width="50" height="50" viewBox="0 0 50 50" fill="none" xmlns="http://www.w3.org/2000/svg">
<path d="M33.75 33.75C40.4207 32.1442 45 28.8291 45 25C45 21.1709 40.4207 17.8558 33.75 16.25C34.4363 18.8829 34.8225 21.8547 34.8225 25C34.8225 28.1453 34.4363 31.1171 33.75 33.75Z" fill="#404040"/>
<path d="M16.25 33.75C9.57932 32.1442 5 28.8291 5 25C5 21.1709 9.57932 17.8558 16.25 16.25C15.5637 18.8829 15.1775 21.8547 15.1775 25C15.1775 28.1453 15.5637 31.1171 16.25 33.75Z" fill="#404040"/>
<path d="M16.25 33.75C17.8558 40.4207 21.1709 45 25 45C28.8291 45 32.1442 40.4207 33.75 33.75C31.1171 34.4363 28.1453 34.8225 25 34.8225C21.8547 34.8225 18.8829 34.4363 16.25 33.75Z" fill="#FFD11A"/>
<path d="M16.25 16.25C17.8558 9.57932 21.1709 5 25 5C28.8291 5 32.1442 9.57932 33.75 16.25C31.1171 15.5637 28.1453 15.1775 25 15.1775C21.8547 15.1775 18.8829 15.5637 16.25 16.25Z" fill="#FFD11A"/>
</svg>
