<svg width="30" height="30" viewBox="0 0 30 30" fill="none" xmlns="http://www.w3.org/2000/svg">
<path d="M17.3562 20.65H12.6729V30H17.3562V20.65Z" fill="#FFD11A"/>
<path d="M17.3562 0H12.6729V9.35H17.3562V0Z" fill="#FFD11A"/>
<path d="M20.646 12.6567V17.3401H29.996V12.6567H20.646Z" fill="#FFD11A"/>
<path d="M0 12.661L0 17.3443H9.35V12.661H0Z" fill="#FFD11A"/>
<path d="M20.6544 17.3261L17.3428 20.6377L23.9542 27.2491L27.2657 23.9375L20.6544 17.3261Z" fill="#404040"/>
<path d="M6.05475 2.72734L2.74316 6.03893L9.35455 12.6503L12.6661 9.33873L6.05475 2.72734Z" fill="#404040"/>
<path d="M17.332 9.35308L20.6436 12.6647L27.2549 6.05328L23.9434 2.74169L17.332 9.35308Z" fill="#404040"/>
<path d="M2.73432 23.9518L6.0459 27.2634L12.6573 20.652L9.3457 17.3405L2.73432 23.9518Z" fill="#404040"/>
</svg>
