<svg width="30" height="30" viewBox="0 0 30 30" fill="none" xmlns="http://www.w3.org/2000/svg">
<path d="M15 21C15 24.3137 17.6863 27 21 27C24.3137 27 27 24.3137 27 21C27 17.6863 24.3137 15 21 15H15V21Z" fill="#FFD11A"/>
<path d="M15 9C15 5.68629 12.3137 3 9 3C5.68629 3 3 5.68629 3 9C3 12.3137 5.68629 15 9 15H15V9Z" fill="#FFD11A"/>
<path fill-rule="evenodd" clip-rule="evenodd" d="M21 3C17.6863 3 15 5.68629 15 9V15H21C24.3137 15 27 12.3137 27 9C27 5.68629 24.3137 3 21 3ZM24 9C24 10.6569 22.6569 12 21 12C19.3431 12 18 10.6569 18 9C18 7.34315 19.3431 6 21 6C22.6569 6 24 7.34315 24 9Z" fill="#404040"/>
<path fill-rule="evenodd" clip-rule="evenodd" d="M9 27C12.3137 27 15 24.3137 15 21V15H9C5.68629 15 3 17.6863 3 21C3 24.3137 5.68629 27 9 27ZM12 21C12 22.6569 10.6569 24 9 24C7.34315 24 6 22.6569 6 21C6 19.3431 7.34315 18 9 18C10.6569 18 12 19.3431 12 21Z" fill="#404040"/>
</svg>
