<svg width="35" height="35" viewBox="0 0 35 35" fill="none" xmlns="http://www.w3.org/2000/svg">
<path d="M23.333 35V29.1666C26.5608 29.1666 29.1663 26.5611 29.1663 23.3333H34.9997C34.9997 29.7889 29.7691 35 23.333 35Z" fill="#FFD11A"/>
<path d="M23.3332 35V29.1666C20.1054 29.1666 17.4998 26.5611 17.4998 23.3333H11.6665C11.6665 29.7889 16.8971 35 23.3332 35Z" fill="#FFD11A"/>
<path d="M0 23.3334H5.83333C5.83333 26.5612 8.43889 29.1667 11.6667 29.1667V35C5.23056 35 0 29.7889 0 23.3334Z" fill="#FFD11A"/>
<path d="M0 23.3334H5.83333C5.83333 20.1056 8.43889 17.5 11.6667 17.5V11.6667C5.23056 11.6667 0 16.8972 0 23.3334Z" fill="#FFD11A"/>
<path d="M11.6667 0V5.83333C8.43889 5.83333 5.83333 8.43889 5.83333 11.6667H0C0 5.23056 5.23056 0 11.6667 0Z" fill="#FFD11A"/>
<path d="M11.6665 0V5.83333C14.8943 5.83333 17.4998 8.43889 17.4998 11.6667H23.3332C23.3332 5.23056 18.1026 0 11.6665 0Z" fill="#FFD11A"/>
<path d="M35.0002 11.6667H29.1668C29.1668 8.43889 26.5613 5.83333 23.3335 5.83333V0C29.7696 0 35.0002 5.23056 35.0002 11.6667Z" fill="#FFD11A"/>
<path d="M35.0002 11.6667H29.1668C29.1668 14.8945 26.5613 17.5 23.3335 17.5V23.3334C29.7696 23.3334 35.0002 18.1222 35.0002 11.6667Z" fill="#FFD11A"/>
</svg>
