<?xml version="1.0" encoding="UTF-8"?>
<svg version="1.1" xmlns="http://www.w3.org/2000/svg" width="83" height="88">
<path d="M0 0 C27.39 0 54.78 0 83 0 C83 29.04 83 58.08 83 88 C55.61 88 28.22 88 0 88 C0 58.96 0 29.92 0 0 Z " fill="#151414" transform="translate(0,0)"/>
<path d="M0 0 C1.36560059 0.00303635 1.36560059 0.00303635 2.75878906 0.00613403 C3.68723633 0.00517731 4.61568359 0.00422058 5.57226562 0.00323486 C7.53938871 0.00255298 9.50651403 0.00440781 11.47363281 0.00857544 C14.49581932 0.01392358 17.51785721 0.00863071 20.54003906 0.00222778 C22.44628939 0.00288856 24.35253963 0.00416972 26.25878906 0.00613403 C27.16918945 0.0041098 28.07958984 0.00208557 29.01757812 0 C35.39383938 0.02399685 35.39383938 0.02399685 36.50878906 1.13894653 C36.60147905 2.48989635 36.62626233 3.84561744 36.62231445 5.19973755 C36.62223892 6.06055435 36.62216339 6.92137115 36.62208557 7.80827332 C36.61692429 8.74368454 36.611763 9.67909576 36.60644531 10.64285278 C36.60503036 11.59586777 36.60361542 12.54888275 36.60215759 13.53077698 C36.59654058 16.58769819 36.58398522 19.6445473 36.57128906 22.70144653 C36.56627625 24.76850277 36.56171297 26.83556015 36.55761719 28.90261841 C36.54656563 33.98142241 36.52928961 39.06017223 36.50878906 44.13894653 C34.57128906 44.70144653 34.57128906 44.70144653 32.50878906 45.13894653 C30.55780821 43.18796568 31.25463798 39.49219725 31.19238281 36.82254028 C31.17160172 36.09148575 31.15082062 35.36043121 31.12940979 34.60722351 C31.06383882 32.26372997 31.00499475 29.92012115 30.94628906 27.57644653 C30.90311098 25.99114798 30.85949693 24.40586124 30.81542969 22.82058716 C30.70814987 18.92682616 30.60690416 15.03294881 30.50878906 11.13894653 C29.92885193 11.72998672 29.34891479 12.32102692 28.75140381 12.92997742 C23.29074522 18.49071355 17.81821331 24.03942434 12.33192062 29.57487583 C9.51159168 32.42132733 6.69611229 35.27225378 3.89111328 38.13381958 C1.18525478 40.89390226 -1.53254584 43.64168193 -4.25914764 46.38126945 C-5.29857025 47.42994916 -6.33357297 48.48302843 -7.36408234 49.54046822 C-8.80557426 51.01812269 -10.26182768 52.47951397 -11.72265625 53.9380188 C-12.96175751 55.19377464 -12.96175751 55.19377464 -14.22589111 56.47489929 C-16.49121094 58.13894653 -16.49121094 58.13894653 -18.78924561 57.90150452 C-19.35089417 57.64986038 -19.91254272 57.39821625 -20.49121094 57.13894653 C-20.00685644 52.58617799 -18.46650113 50.62426135 -15.24682617 47.44046021 C-13.89553871 46.08962593 -13.89553871 46.08962593 -12.51695251 44.71150208 C-11.52811551 43.74308969 -10.5390611 42.77489923 -9.54980469 41.80691528 C-8.54145198 40.80602689 -7.53398177 39.80424871 -6.52735901 38.80162048 C-3.88107032 36.17057305 -1.22298942 33.55176117 1.43774414 30.93533325 C4.63064192 27.79063196 7.80866445 24.63090683 10.98918915 21.47370148 C15.81776867 16.68385477 20.66482815 11.91345998 25.50878906 7.13894653 C14.94878906 6.80894653 4.38878906 6.47894653 -6.49121094 6.13894653 C-6.82121094 4.48894653 -7.15121094 2.83894653 -7.49121094 1.13894653 C-5.54257169 -0.80969271 -2.59312374 0.00975913 0 0 Z " fill="#F5C919" transform="translate(33.4912109375,14.861053466796875)"/>
</svg>
