<svg width="20" height="21" viewBox="0 0 20 21" fill="none" xmlns="http://www.w3.org/2000/svg">
<path d="M18.0023 9.52277C18.2153 9.79073 18.3332 10.1389 18.3332 10.4999C18.3332 10.8608 18.2153 11.209 18.0023 11.4769C16.6536 13.1249 13.5836 16.3332 9.99984 16.3332C6.4161 16.3332 3.34616 13.1249 1.99744 11.4769C1.78442 11.209 1.6665 10.8608 1.6665 10.4999C1.6665 10.1389 1.78442 9.79073 1.99744 9.52277C3.34616 7.87484 6.4161 4.6665 9.99984 4.6665C13.5836 4.6665 16.6536 7.87484 18.0023 9.52277Z" stroke="#FFD11A" stroke-width="1.5" stroke-linecap="round" stroke-linejoin="round"/>
<path d="M10.0003 13.0923C11.4191 13.0923 12.5693 11.9316 12.5693 10.4997C12.5693 9.0679 11.4191 7.90717 10.0003 7.90717C8.58145 7.90717 7.43127 9.0679 7.43127 10.4997C7.43127 11.9316 8.58145 13.0923 10.0003 13.0923Z" stroke="#FFD11A" stroke-width="1.5" stroke-linecap="round" stroke-linejoin="round"/>
</svg>
