<?xml version="1.0" encoding="UTF-8"?>
<svg version="1.1" xmlns="http://www.w3.org/2000/svg" width="292" height="292">
<path d="M0 0 C0.94343262 -0.01293594 1.88686523 -0.02587189 2.85888672 -0.03919983 C4.4165551 -0.05265945 4.4165551 -0.05265945 6.00569153 -0.06639099 C7.09689301 -0.07938736 8.18809448 -0.09238373 9.31236267 -0.10577393 C20.05313139 -0.22501899 30.79462949 -0.28358735 41.53592318 -0.33155018 C48.30330249 -0.36246513 55.06955123 -0.42384662 61.83644503 -0.51005226 C67.70223885 -0.58224506 73.56765426 -0.6105109 79.43384743 -0.62386894 C81.92619155 -0.63612852 84.41850752 -0.66218795 86.9105587 -0.70231819 C90.40159908 -0.75572158 93.88932982 -0.75879122 97.38069153 -0.74998474 C98.40901596 -0.7771759 99.43734039 -0.80436707 100.49682617 -0.8323822 C104.59853037 -0.77908334 107.38824743 -0.73422507 110.65535927 1.89558601 C112.43570895 3.91143422 113.9828278 5.96744734 115.51667786 8.17408752 C116.48980504 9.33704879 117.47344344 10.49141529 118.47370911 11.63111877 C119.42554177 12.74960006 120.37736454 13.86808977 121.32917786 14.98658752 C125.04962002 19.34765885 128.82288338 23.64173776 132.70417786 27.86158752 C136.74672641 32.26751123 140.56814418 36.81064486 144.31355286 41.47096252 C146.30261109 44.0632308 146.30261109 44.0632308 148.10310364 45.56886292 C152.12636613 49.36491964 152.93298695 52.23481615 153.10261536 57.76393127 C153.06299421 60.21383872 152.9918132 62.66340672 152.89167786 65.11158752 C152.85107239 66.99587463 152.85107239 66.99587463 152.80964661 68.91822815 C152.73921923 72.005295 152.64076432 75.08878905 152.51667786 78.17408752 C153.19722229 78.21799622 153.87776672 78.26190491 154.57893372 78.30714417 C155.92290222 78.41337097 155.92290222 78.41337097 157.29402161 78.52174377 C158.18081604 78.58627747 159.06761047 78.65081116 159.98127747 78.71730042 C163.99694114 79.44077723 165.73821446 81.25313882 168.51667786 84.17408752 C170.00557558 87.15188298 169.6769282 89.86827673 169.70954895 93.19068909 C169.72181519 94.27394722 169.72181519 94.27394722 169.73432922 95.37908936 C169.75918514 97.77428864 169.77570107 100.16942857 169.79011536 102.56471252 C169.79543903 103.38283165 169.80076271 104.20095078 169.80624771 105.04386139 C169.83298222 109.37550927 169.85235472 113.70712832 169.86677551 118.03883362 C169.88340976 122.50908402 169.92817566 126.97859521 169.97914696 131.44856644 C170.01283779 134.88873623 170.02435498 138.32873112 170.03000259 141.7690506 C170.03671178 143.41647225 170.05192535 145.06388254 170.0758934 146.71114349 C170.10758496 149.02133982 170.10757674 151.32955038 170.10017395 153.63990784 C170.1082608 154.9529187 170.11634766 156.26592957 170.12467957 157.61872864 C169.32695549 162.28351053 167.83114379 163.85571033 164.51667786 167.17408752 C160.52775636 169.48346313 157.04724194 169.22713863 152.51667786 169.17408752 C152.52111908 169.74149658 152.5255603 170.30890564 152.53013611 170.89350891 C152.5743774 176.79820742 152.60454761 182.70285885 152.62654114 188.60768127 C152.63659969 190.81147677 152.65024811 193.01525892 152.66755676 195.2190094 C152.69181125 198.38636062 152.70316245 201.5535354 152.71199036 204.72096252 C152.72231293 205.70651123 152.7326355 206.69205994 152.74327087 207.70747375 C152.74342194 208.62812622 152.743573 209.54877869 152.74372864 210.49732971 C152.74816986 211.30563232 152.75261108 212.11393494 152.75718689 212.94673157 C152.48346247 215.48169542 151.88900576 217.03051898 150.51667786 219.17408752 C147.0009795 221.51788643 145.57344739 221.42898157 141.412323 221.44151306 C139.49638084 221.45430801 139.49638084 221.45430801 137.54173279 221.46736145 C136.12330615 221.46666241 134.70487961 221.46573933 133.28645325 221.46461487 C131.79497948 221.47059816 130.30350881 221.47740324 128.81204224 221.48497009 C124.75834506 221.50265654 120.70473229 221.50732655 116.65100026 221.50860167 C113.26868592 221.51049953 109.88639129 221.51785567 106.50408453 221.52494586 C98.52560615 221.54123707 90.54717291 221.5461141 82.56867981 221.54469299 C74.33375167 221.54349099 66.09908539 221.56460266 57.86422354 221.59618032 C50.7974798 221.62231471 43.73082173 221.6330615 36.66403002 221.63178217 C32.44182061 221.63127175 28.21984391 221.63699919 23.99768257 221.65813828 C20.02739102 221.67747338 16.05755529 221.67767796 12.08724785 221.66310501 C10.62955435 221.66100997 9.17183268 221.66575913 7.71418762 221.67782593 C5.72552108 221.69322335 3.73669981 221.68159629 1.74801636 221.66856384 C0.0780414 221.67019814 0.0780414 221.67019814 -1.62567043 221.67186546 C-5.14142666 221.05945147 -6.28636831 219.92394817 -8.48332214 217.17408752 C-9.67027632 214.80017916 -9.60408048 213.37163801 -9.59684753 210.72438049 C-9.596772 209.80357697 -9.59669647 208.88277344 -9.59661865 207.93406677 C-9.59145737 206.9381955 -9.58629608 205.94232422 -9.58097839 204.91627502 C-9.57956345 203.89808685 -9.5781485 202.87989868 -9.57669067 201.83085632 C-9.57108115 198.57023717 -9.55852702 195.30968602 -9.54582214 192.04908752 C-9.54080837 189.84205726 -9.53624525 187.63502593 -9.53215027 185.42799377 C-9.52110862 180.01000172 -9.5043612 174.59204948 -9.48332214 169.17408752 C-10.57257996 169.19857971 -11.66183777 169.2230719 -12.78410339 169.24830627 C-17.9697069 169.14426565 -20.9817289 167.68340225 -24.62576294 164.02062988 C-26.99112504 160.39592528 -26.99626608 158.12745573 -27.01676941 153.81690979 C-27.02538498 153.09429962 -27.03400055 152.37168945 -27.0428772 151.62718201 C-27.06550635 149.24791739 -27.05880433 146.86983367 -27.04972839 144.49049377 C-27.05496565 142.83049165 -27.0612425 141.17049251 -27.06851196 139.51049805 C-27.07891069 136.03453043 -27.07436295 132.55897231 -27.05973816 129.08302307 C-27.04255702 124.63626033 -27.0660389 120.19079056 -27.10122776 115.7441721 C-27.12322685 112.31679784 -27.12175421 108.88973172 -27.11346245 105.46230888 C-27.11264417 103.82330343 -27.11948392 102.18427506 -27.13423347 100.54533577 C-27.15172594 98.24964432 -27.13710176 95.95625996 -27.11442566 93.66065979 C-27.1134639 92.35669754 -27.11250214 91.05273529 -27.11151123 89.70925903 C-26.28501579 85.05810668 -24.81514584 83.47299425 -21.48332214 80.17408752 C-17.34715533 78.23800944 -13.99062371 78.11139905 -9.48332214 78.17408752 C-9.48998398 77.2831691 -9.49664581 76.39225067 -9.50350952 75.47433472 C-9.56365267 67.07300281 -9.60931287 58.67174335 -9.63875866 50.27024555 C-9.65440603 45.95107136 -9.67562724 41.63207525 -9.7096405 37.31300354 C-9.74226724 33.14384399 -9.76018215 28.97485561 -9.76795387 24.80557823 C-9.77349145 23.21597284 -9.78430506 21.62637667 -9.80051231 20.03684425 C-9.82233115 17.80805436 -9.82528728 15.57996921 -9.82389832 13.35108948 C-9.83056015 12.08312027 -9.83722198 10.81515106 -9.84408569 9.50875854 C-9.45502441 5.9125211 -8.65423866 4.03568354 -6.48332214 1.17408752 C-4.11397758 -0.01058476 -2.64442495 0.03044803 0 0 Z M0.51667786 9.17408752 C0.51667786 31.94408752 0.51667786 54.71408752 0.51667786 78.17408752 C47.37667786 78.17408752 94.23667786 78.17408752 142.51667786 78.17408752 C142.51667786 71.57408752 142.51667786 64.97408752 142.51667786 58.17408752 C139.65238098 58.13670471 136.78808411 58.0993219 133.83699036 58.06080627 C131.07014726 58.01462631 128.30344136 57.9633799 125.53669739 57.91163635 C123.61034954 57.87833383 121.68390286 57.85031863 119.75740051 57.82765198 C116.99183436 57.79420329 114.22717833 57.74189416 111.46199036 57.68580627 C110.59736176 57.67941635 109.73273315 57.67302643 108.84190369 57.66644287 C106.41560364 57.60646057 106.41560364 57.60646057 102.51667786 57.17408752 C93.62415723 43.83530659 99.87283925 25.20135021 99.51667786 9.17408752 C66.84667786 9.17408752 34.17667786 9.17408752 0.51667786 9.17408752 Z M-1.48332214 100.17408752 C-7.97422226 108.82862102 -10.5097663 117.42086301 -9.48332214 128.17408752 C-7.81583392 137.42234153 -3.73728785 144.1244422 3.95417786 149.54908752 C10.04259549 153.56318239 16.33992702 154.50657891 23.51667786 154.42408752 C24.18956848 154.4318219 24.86245911 154.43955627 25.55574036 154.44752502 C30.26615403 154.4293381 34.09151875 153.62609286 38.51667786 152.17408752 C38.18667786 148.87408752 37.85667786 145.57408752 37.51667786 142.17408752 C36.23792786 142.22049377 34.95917786 142.26690002 33.64167786 142.31471252 C31.93336807 142.35225779 30.22503277 142.38865498 28.51667786 142.42408752 C27.25790833 142.47436096 27.25790833 142.47436096 25.97370911 142.52565002 C20.06679105 142.61723015 15.35314825 141.74425842 10.51667786 138.17408752 C5.46811527 131.89347354 4.89829767 124.92134117 5.51667786 117.17408752 C6.64089664 111.31577312 9.1990616 108.00427429 13.79792786 104.30299377 C17.54939885 101.83895942 21.0345814 102.0398759 25.39167786 102.04908752 C26.60597473 102.0465094 27.82027161 102.04393127 29.07136536 102.04127502 C32.51667786 102.17408752 32.51667786 102.17408752 37.51667786 103.17408752 C38.17667786 99.54408752 38.83667786 95.91408752 39.51667786 92.17408752 C25.53918868 88.50786086 9.10846984 88.88260997 -1.48332214 100.17408752 Z M50.51667786 99.17408752 C47.88581792 103.34474842 47.17572514 106.94115679 48.01667786 111.79908752 C49.55450259 117.1265518 51.95458185 120.65867372 56.71589661 123.47486877 C59.28780183 124.77899026 61.89175887 125.98059918 64.51667786 127.17408752 C66.39524242 128.10442426 68.27040858 129.0416629 70.14167786 129.98658752 C70.97956848 130.40553284 71.81745911 130.82447815 72.68074036 131.25611877 C73.28659973 131.55904846 73.89245911 131.86197815 74.51667786 132.17408752 C74.80964661 138.22877502 74.80964661 138.22877502 74.51667786 140.17408752 C69.03434671 143.82897496 61.17082679 142.78751918 54.81745911 141.72096252 C53.03235754 141.2722835 51.26973357 140.73506535 49.51667786 140.17408752 C48.85667786 143.80408752 48.19667786 147.43408752 47.51667786 151.17408752 C57.54522057 154.82083033 68.45233471 156.20932689 78.61824036 152.14674377 C83.10864906 149.84610228 85.85542569 147.34229969 88.39167786 142.86158752 C90.02148922 137.51942804 90.29410093 133.46062598 88.45417786 128.04908752 C83.43557896 120.60213432 76.97880656 117.78443883 68.93977356 114.53370667 C63.6109372 112.36260622 63.6109372 112.36260622 62.51667786 110.17408752 C62.26667786 107.17408752 62.26667786 107.17408752 62.51667786 104.17408752 C66.06754457 101.80684305 67.62842044 101.93329072 71.82917786 101.98658752 C73.49400208 101.99625549 73.49400208 101.99625549 75.19245911 102.00611877 C78.37473499 102.16691532 81.38861548 102.58254774 84.51667786 103.17408752 C85.17667786 99.87408752 85.83667786 96.57408752 86.51667786 93.17408752 C74.0530981 88.27038401 59.77673982 88.14188433 50.51667786 99.17408752 Z M95.51667786 91.17408752 C97.43383701 99.25110416 99.67958412 107.14566439 102.27449036 115.02955627 C102.62301056 116.09781143 102.97153076 117.16606659 103.33061218 118.26669312 C104.05973811 120.49828049 104.79088791 122.72920756 105.52400208 124.95948792 C106.65077196 128.38926913 107.76969597 131.82154156 108.88777161 135.25416565 C109.59955216 137.42944611 110.31177539 139.60458179 111.02449036 141.77955627 C111.35989838 142.80856552 111.6953064 143.83757477 112.0408783 144.89776611 C112.35145172 145.83997513 112.66202515 146.78218414 112.98200989 147.75294495 C113.25497894 148.58500961 113.527948 149.41707428 113.80918884 150.27435303 C114.36003001 152.15606202 114.36003001 152.15606202 115.51667786 153.17408752 C118.21322639 153.24728374 120.88359244 153.2665129 123.57917786 153.23658752 C124.33779114 153.23207581 125.09640442 153.22756409 125.87800598 153.22291565 C127.75759657 153.21109432 129.63714684 153.1931583 131.51667786 153.17408752 C134.12972314 145.53507861 136.73785375 137.89441727 139.33970642 130.25158978 C140.54797183 126.70287039 141.75792947 123.15474688 142.97175598 119.60792542 C144.1428427 116.18578743 145.30948195 112.76216323 146.47303772 109.33745766 C146.91799977 108.03036767 147.36456856 106.72382353 147.8127594 105.41783714 C148.43965558 103.59023202 149.06034291 101.76050071 149.68074036 99.93067932 C150.03603821 98.88921249 150.39133606 97.84774567 150.75740051 96.77471924 C151.65680708 94.14565927 151.65680708 94.14565927 151.51667786 91.17408752 C146.89667786 91.17408752 142.27667786 91.17408752 137.51667786 91.17408752 C135.8200055 97.02564227 134.12952762 102.87893833 132.44465637 108.73390198 C131.87114305 110.72364537 131.29596781 112.71291054 130.71907043 114.70167542 C129.88806701 117.56752587 129.06314128 120.4350676 128.23933411 123.30299377 C127.98201004 124.18556351 127.72468597 125.06813324 127.45956421 125.97744751 C126.10662807 130.71123481 125.07648167 135.28088013 124.51667786 140.17408752 C123.85667786 140.17408752 123.19667786 140.17408752 122.51667786 140.17408752 C122.40259583 138.8824469 122.28851379 137.59080627 122.17097473 136.26002502 C121.61339881 131.27154667 120.4395714 126.61228714 119.04792786 121.79908752 C118.80755798 120.94854797 118.56718811 120.09800842 118.3195343 119.22169495 C117.8152252 117.44265679 117.30749395 115.6645854 116.79646301 113.88746643 C116.01143319 111.15583793 115.23785622 108.421154 114.46589661 105.68580627 C113.97306754 103.95254541 113.47960122 102.21946559 112.98542786 100.48658752 C112.75311462 99.66690491 112.52080139 98.84722229 112.28144836 98.00270081 C111.46135703 94.2925235 111.46135703 94.2925235 109.51667786 91.17408752 C107.16354231 91.10137011 104.80834117 91.09037885 102.45417786 91.11158752 C101.16382629 91.12061096 99.87347473 91.1296344 98.54402161 91.13893127 C97.54499817 91.15053284 96.54597473 91.1621344 95.51667786 91.17408752 Z M0.51667786 169.17408752 C0.51667786 182.37408752 0.51667786 195.57408752 0.51667786 209.17408752 C47.37667786 209.17408752 94.23667786 209.17408752 142.51667786 209.17408752 C142.51667786 195.97408752 142.51667786 182.77408752 142.51667786 169.17408752 C95.65667786 169.17408752 48.79667786 169.17408752 0.51667786 169.17408752 Z " fill="#EC4C5C" transform="translate(72.48332214355469,32.82591247558594)"/>
</svg>
